PathFileType	4	(X/Y/Z)	walk-thru1-3-TP.trc
DataRate	CameraRate	NumFrames	NumMarkers	Units	OrigDataRate	OrigDataStartFrame	OrigNumFrames
120.00	120.00	       4	60	mm	120.00	397	       529
Frame#	Time	Top.Head			Front.Head			Rear.Head			Jaw			C7			R.Clavicle			L.Clavicle			R.Shoulder			L.Shoulder			R.Scapula			L.Scapula			R.Scap.Inf			R.Biceps.Lateral			R.Elbow			R.Elbow.Medial			R.Forearm			R.Ulna			R.Radius			R.Wrist			R.Thumb.M1			R.Thumb.M2			R.Thumb.M3			R.Finger3.M1			R.Finger3.M2			R.Finger3.M3			L.Biceps.Lateral			L.Elbow			L.Elbow.Medial			L.Forearm			L.Ulna			L.Radius			L.Wrist			L.Thumb.M1			L.Thumb.M2			L.Thumb.M3			L.Finger3.M1			L.Finger3.M2			L.Finger3.M3			V.Sacral			R.ASIS			L.ASIS			R.Thigh			R.Thigh.Front			R.Knee			R.Knee.Medial			R.Shank			R.Ankle			R.Ankle.Medial			R.Heel			R.Toe			R.MedFoot			L.Thigh			L.Knee			L.Knee.Medial			L.Shank			L.Ankle			L.Ankle.Medial			L.Heel			L.Toe			L.MedFoot			V_mid_ASIS			V_R_Knee_JC			V_L_Knee_JC			V_R_Elbow_JC			V_L_Elbow_JC			V_R_Ankle_JC			V_L_Ankle_JC			V_R_Wrist_JC			V_L_Wrist_JC			V_R_ScaTrpz_1stMC_JC			V_R_1stMC_1stPP_JC			V_R_1stPP_1stDP_JC			V_R_LunCap_3rdMC_JC			V_R_3rdMC_3rdPP_JC			V_R_3rdPP_3rdMP_JC			V_R_3rdMP_3rdDP_JC			V_L_ScaTrpz_1stMC_JC			V_L_1stMC_1stPP_JC			V_L_1stPP_1stDP_JC			V_L_LunCap_3rdMC_JC			V_L_3rdMC_3rdPP_JC			V_L_3rdPP_3rdMP_JC			V_L_3rdMP_3rdPP_JC			V_ROOT_JC			V_R_Hip_JC			V_L_Hip_JC			V_R_GlenHum_JC			V_L_GlenHum_JC			V_ForeHead_Ctr			V_Vertex			V_Sagit_Lambdoid_Suture			V_R_FrontoTemp			V_L_FrontoTemporal			V_R_ParietalOccip			V_L_ParietalOcciptal			V_R_Temporal			V_L_Temporal			V_mid_FrontRearHead			V_mid_RLGlenHumCtrs			V_C7_vert			V_C1_vert			V_Mid_Hip			
		X1	Y1	Z1	X2	Y2	Z2	X3	Y3	Z3	X4	Y4	Z4	X5	Y5	Z5	X6	Y6	Z6	X7	Y7	Z7	X8	Y8	Z8	X9	Y9	Z9	X10	Y10	Z10	X11	Y11	Z11	X12	Y12	Z12	X13	Y13	Z13	X14	Y14	Z14	X15	Y15	Z15	X16	Y16	Z16	X17	Y17	Z17	X18	Y18	Z18	X19	Y19	Z19	X20	Y20	Z20	X21	Y21	Z21	X22	Y22	Z22	X23	Y23	Z23	X24	Y24	Z24	X25	Y25	Z25	X26	Y26	Z26	X27	Y27	Z27	X28	Y28	Z28	X29	Y29	Z29	X30	Y30	Z30	X31	Y31	Z31	X32	Y32	Z32	X33	Y33	Z33	X34	Y34	Z34	X35	Y35	Z35	X36	Y36	Z36	X37	Y37	Z37	X38	Y38	Z38	X39	Y39	Z39	X40	Y40	Z40	X41	Y41	Z41	X42	Y42	Z42	X43	Y43	Z43	X44	Y44	Z44	X45	Y45	Z45	X46	Y46	Z46	X47	Y47	Z47	X48	Y48	Z48	X49	Y49	Z49	X50	Y50	Z50	X51	Y51	Z51	X52	Y52	Z52	X53	Y53	Z53	X54	Y54	Z54	X55	Y55	Z55	X56	Y56	Z56	X57	Y57	Z57	X58	Y58	Z58	X59	Y59	Z59	X60	Y60	Z60	

397	3.300	-743.57648	66.29180	1803.99731	-841.20142	59.00026	1689.66235	-615.22626	59.01182	1707.33435	-794.62689	59.20021	1524.50854	-602.35101	51.90057	1572.21313	-690.32806	170.75926	1472.38281	-711.75909	-55.34994	1478.21704	-643.86560	256.85294	1467.29004	-651.07239	-153.54034	1491.39343	-543.03766	134.69693	1486.16858	-553.54889	-33.60004	1491.37585	-493.53577	141.44408	1400.32617	-581.44122	309.56583	1293.84631	-535.57074	323.01804	1143.32556	-528.36407	230.68144	1125.54797	-621.04797	281.30933	1023.38892	-578.30402	319.34177	925.03192	-645.72357	265.96069	893.18237	-632.74432	304.81604	844.84021	-657.44110	262.09653	859.17407	-694.92499	238.10640	814.07507	-726.23627	238.74878	782.21759	-671.45679	313.07431	773.42480	-690.75256	275.61407	720.71124	-683.81342	228.19308	697.47223	-641.29926	-222.82544	1341.49744	-644.83844	-268.97858	1165.67346	-596.23181	-208.80946	1142.41443	-723.29230	-238.47627	1071.29504	-688.27570	-264.40326	974.98425	-760.72009	-205.65433	936.68805	-764.44324	-238.59818	879.55481	-778.70746	-191.17938	873.66016	-780.78931	-155.81688	825.19409	-795.89783	-160.32477	765.35352	-793.51141	-252.64178	808.74213	-789.01221	-233.28775	750.20703	-771.64258	-213.71133	704.13220	-502.92200	35.19424	1091.31177	-588.08398	226.52051	1034.85645	-608.74927	-146.14684	1035.50256	-758.54944	209.66827	653.95502	-851.15942	125.55825	590.91455	-802.11835	189.06744	531.26062	-796.99316	72.18932	524.60449	-775.42255	154.61301	349.11920	-624.48456	192.65039	120.78091	-667.66638	97.36230	131.17703	-565.87311	132.24423	106.43141	-787.52545	160.27161	59.20653	-737.40991	118.12201	88.94744	-644.56915	-113.53587	648.17334	-663.50806	-84.49318	500.52594	-664.90631	29.06166	505.04764	-653.91217	-25.12727	301.83145	-534.16199	-37.68610	67.21378	-568.96002	53.65546	107.28966	-482.49075	24.95003	55.29152	-720.02081	-0.20887	43.77568	-657.14618	34.99971	68.59333																																																																																																																															
398	3.308	-748.41907	65.86853	1803.80652	-846.27539	59.25868	1689.56946	-619.86810	57.80615	1707.33850	-800.18060	58.82185	1524.43164	-604.91003	51.99278	1570.72876	-695.53149	170.88411	1472.38831	-717.17847	-55.19204	1478.22437	-649.29279	256.04050	1467.49792	-657.49207	-154.28392	1491.62732	-547.27789	136.00491	1486.78101	-558.19128	-34.06509	1490.93115	-498.10965	140.52896	1400.01074	-587.17377	309.13260	1294.02600	-541.36591	322.54041	1143.19275	-531.00415	231.57698	1125.71338	-623.77234	280.28833	1023.28876	-583.44495	319.31128	924.79156	-650.61725	265.57648	892.78925	-637.72125	304.05908	843.78656	-660.52277	261.77536	858.86896	-699.37988	237.15199	813.57373	-735.62274	241.92091	785.07983	-676.64258	312.82642	773.13214	-698.11835	274.33423	720.44318	-689.44556	227.51572	697.12256	-647.05743	-222.47894	1342.05701	-650.19769	-270.58801	1165.45459	-600.96271	-209.37280	1142.62842	-728.56635	-238.45175	1071.90991	-695.08545	-264.14508	975.66296	-766.94830	-205.77040	937.61047	-772.58392	-239.37692	880.17157	-785.20294	-191.58432	874.28204	-787.35706	-154.75450	825.61530	-802.07916	-160.07751	765.79840	-800.30023	-252.49759	809.03406	-795.63165	-233.20093	750.75916	-778.45996	-214.38571	704.72131	-507.92886	35.47764	1091.60876	-593.15259	225.95261	1035.32813	-613.49078	-146.37376	1034.99597	-763.51331	209.93831	654.03442	-855.39606	124.71749	591.40637	-807.11523	189.31487	531.30981	-802.12347	70.17873	524.56592	-785.27893	154.26799	347.88199	-644.47644	192.47313	115.13000	-686.18207	98.98849	127.16653	-585.69165	133.09900	99.80695	-808.61359	157.56891	59.33088	-756.71472	117.46406	86.89771	-647.77991	-113.78157	648.03174	-664.49133	-84.51227	500.12402	-666.62946	28.41217	505.01321	-654.94928	-25.27594	301.73010	-534.24347	-38.01620	67.44395	-568.66302	53.85857	107.58366	-482.43585	24.82435	55.88328	-719.78589	-0.34280	43.75499	-656.99280	34.24852	69.01103																																																																																																																															
399	3.317	-753.56079	66.06451	1803.87695	-851.83081	58.80726	1689.21753	-625.06317	58.53788	1707.23193	-805.11285	58.92321	1524.73022	-610.64374	51.02528	1571.35291	-700.13428	170.33130	1472.85095	-722.32477	-55.61500	1478.17542	-654.76935	255.31995	1466.95300	-662.70563	-153.65671	1491.73242	-552.73279	135.74687	1486.61365	-563.03644	-34.85202	1490.72620	-503.13910	139.20221	1399.71948	-592.26868	309.18790	1293.08740	-547.25885	322.64005	1143.16797	-538.32764	229.50047	1126.05884	-633.44946	282.45895	1023.93097	-589.02240	318.66907	924.06635	-656.91235	266.47763	891.95642	-642.69720	303.42645	843.44336	-665.12183	260.77640	857.60193	-704.28986	236.87201	813.46106	-741.07501	241.34033	784.14679	-681.47864	312.35983	773.22565	-700.18884	275.32867	719.61890	-692.74335	228.09569	696.55725	-652.09399	-222.40948	1341.61340	-655.44501	-270.40729	1165.35022	-607.06177	-209.05313	1142.50757	-734.68628	-238.47833	1071.65491	-700.74207	-263.54306	975.73779	-772.71191	-205.08569	937.66083	-776.96301	-239.09407	879.85846	-793.57520	-192.45187	875.06854	-792.74225	-155.45355	825.94373	-808.01691	-159.91689	765.65533	-806.31012	-252.57858	808.85651	-801.80408	-232.17049	750.73682	-784.95917	-213.33284	705.04114	-512.83661	34.46751	1091.60242	-598.32739	227.26891	1035.36206	-617.30719	-146.67633	1034.85315	-767.53711	209.47787	652.94489	-860.15802	123.34596	591.23279	-812.00049	188.74197	530.84186	-805.98907	69.71006	524.61169	-797.02740	153.19482	347.95370	-663.69147	192.47090	108.80959	-704.45770	96.80693	123.93273	-606.72784	132.27629	93.12286	-829.39191	155.35951	60.53994	-776.39441	115.74513	86.02612	-650.34784	-114.11158	647.81989	-666.83667	-85.31396	499.68723	-668.11206	28.45278	504.64404	-656.00079	-26.13593	301.52768	-534.59528	-38.17650	67.44933	-569.07355	53.60777	107.51952	-482.86276	24.85405	56.67693	-719.95007	-0.80042	43.90805	-657.62372	34.71749	68.48080																																																																																																																															
400	3.325	-758.38239	66.25430	1803.32031	-857.59064	59.58432	1689.49658	-630.64221	57.48956	1707.23694	-810.20514	58.93686	1523.64221	-616.47351	52.42710	1571.09412	-705.99835	171.33028	1472.29431	-727.86694	-54.90041	1477.90259	-659.21344	255.07077	1466.87500	-668.32532	-154.08949	1490.91296	-557.41803	134.62770	1485.84534	-568.21234	-34.41978	1490.90308	-507.49152	139.80003	1400.18982	-598.26465	309.36133	1292.44397	-551.14160	322.20712	1142.41370	-540.95026	230.72066	1126.86902	-639.83258	280.45123	1022.91327	-593.05444	318.00821	923.61047	-660.65363	265.22174	892.22784	-649.08301	303.40024	843.58325	-671.12714	261.86325	858.22565	-709.41718	237.09206	812.74628	-741.63373	236.96013	781.11273	-686.01807	312.93762	772.79095	-706.38049	274.91324	719.30939	-699.24249	226.75320	696.01843	-658.22760	-222.54634	1341.87659	-661.33209	-271.04184	1165.35596	-611.63599	-210.71150	1142.14539	-739.20471	-238.33467	1071.89404	-706.47632	-263.92917	975.69611	-778.83954	-204.70193	937.82611	-784.56152	-238.67097	880.66895	-799.62817	-192.07356	875.88818	-798.84052	-153.99915	826.20416	-814.69995	-159.92793	766.46039	-812.35413	-252.02667	809.15845	-807.73999	-232.30095	751.57080	-790.43024	-213.31706	705.21808	-517.61481	35.06999	1091.32886	-604.08972	228.14934	1034.65881	-622.28223	-146.11803	1034.78918	-772.41620	210.23561	652.65448	-864.03796	123.34117	590.81976	-817.07251	188.32814	530.08496	-810.83734	71.54977	524.31213	-807.71918	154.16287	347.21664	-683.96307	191.28447	104.55698	-722.82367	97.54591	120.03389	-624.80548	133.24596	85.67049	-850.41467	153.77164	60.33641	-796.04260	114.33607	84.93602	-653.05560	-114.13297	647.66370	-668.71857	-84.89262	499.36536	-669.79010	28.28737	504.63489	-656.55121	-26.04748	301.43359	-534.54144	-38.15671	67.52266	-568.88635	53.54946	107.81698	-482.98917	24.62039	56.80178	-719.61340	-1.57774	44.25383	-657.01556	33.95909	68.84886																																																																																																																															
